<svg width="49" height="49" viewBox="0 0 49 49" fill="none" xmlns="http://www.w3.org/2000/svg">
<circle cx="24.319" cy="24.319" r="24.319" fill="#4DFFAF"/>
<path d="M34.2857 23.6422C34.2857 23.618 34.2857 23.5817 34.2857 23.5575C34.2857 23.5333 34.2857 23.497 34.2857 23.4729C34.2857 23.3882 34.2736 23.3035 34.2736 23.2189C34.2736 23.1947 34.2736 23.1584 34.2736 23.1342C34.2736 23.11 34.2736 23.0737 34.2616 23.0495C34.2616 22.9891 34.2495 22.9165 34.2495 22.856C34.2495 22.8318 34.2495 22.8076 34.2375 22.7834C34.2375 22.7472 34.2254 22.7109 34.2254 22.6746C34.2254 22.6383 34.2133 22.602 34.2133 22.5778C34.2133 22.5536 34.2013 22.5173 34.2013 22.4932C34.2013 22.4811 34.2013 22.469 34.2013 22.469C34.2013 22.4327 34.1892 22.4085 34.1892 22.3722C34.1772 22.3117 34.1772 22.2513 34.1651 22.2029C34.141 22.0819 34.129 21.9731 34.1049 21.8521C34.0928 21.7916 34.0808 21.7433 34.0687 21.6828C34.0446 21.5981 34.0326 21.5135 34.0084 21.4288C33.9964 21.4046 33.9964 21.3683 33.9843 21.3441C33.9723 21.3078 33.9602 21.2716 33.9602 21.2353C33.9482 21.1869 33.9361 21.1385 33.9241 21.0901C33.912 21.0417 33.9 20.9934 33.8879 20.945C33.8759 20.9087 33.8638 20.8724 33.8518 20.8361C33.8397 20.7757 33.8156 20.7152 33.7915 20.6668C33.7794 20.6426 33.7794 20.6184 33.7674 20.5821C33.7553 20.5579 33.7553 20.5338 33.7433 20.4975C33.7312 20.4733 33.7312 20.4491 33.7192 20.4249C33.7071 20.4007 33.6951 20.3765 33.6951 20.3523C33.683 20.3281 33.671 20.3039 33.671 20.2798C33.6589 20.2556 33.6589 20.2435 33.6469 20.2193C33.6348 20.1951 33.6228 20.1709 33.6228 20.1467C33.6107 20.1225 33.6107 20.0983 33.5987 20.0741C33.5866 20.0499 33.5745 20.0137 33.5625 19.9895C33.5384 19.929 33.5143 19.8685 33.4902 19.8201C33.4661 19.7718 33.454 19.7355 33.4299 19.6871L33.4179 19.6508C33.3938 19.6024 33.3817 19.554 33.3576 19.5057C33.3455 19.4815 33.3335 19.4452 33.3214 19.421C33.3094 19.3968 33.2973 19.3726 33.2853 19.3484C33.2491 19.2638 33.213 19.1912 33.1647 19.1065C33.1527 19.0823 33.1406 19.0702 33.1286 19.0461C33.1165 19.034 33.1165 19.0219 33.1045 18.9977C33.0804 18.9493 33.0563 18.913 33.0322 18.8646C33.0201 18.8404 33.0081 18.8162 32.984 18.7921C32.9719 18.7679 32.9598 18.7437 32.9357 18.7195C32.9116 18.6832 32.8875 18.6348 32.8634 18.5985L32.8514 18.5864C32.8273 18.5502 32.8032 18.5018 32.7791 18.4655C32.7549 18.4292 32.7308 18.3808 32.6947 18.3445C32.6706 18.3083 32.6465 18.2599 32.6103 18.2236C32.5862 18.1873 32.5621 18.151 32.538 18.1147C32.5259 18.1026 32.5259 18.0905 32.5139 18.0784C32.4898 18.0422 32.4777 18.018 32.4536 17.9938C32.4416 17.9817 32.4416 17.9817 32.4295 17.9696C32.4054 17.9333 32.3813 17.9091 32.3572 17.8728C32.3452 17.8607 32.3331 17.8486 32.3331 17.8365C32.309 17.8124 32.2969 17.7761 32.2728 17.7519C32.2728 17.7398 32.2608 17.7398 32.2608 17.7277C32.2367 17.6914 32.2126 17.6551 32.1885 17.6188C32.1644 17.5826 32.1282 17.5463 32.1041 17.4979L32.092 17.4858C32.0438 17.4253 31.9956 17.3648 31.9474 17.3044C31.9233 17.2802 31.9112 17.256 31.8871 17.2318C31.8751 17.2076 31.851 17.1955 31.8389 17.1713L31.8269 17.1592C31.8148 17.1471 31.8028 17.135 31.7907 17.1108C31.7666 17.0867 31.7425 17.0625 31.7184 17.0262L31.7063 17.0141C31.6943 17.002 31.6822 16.9899 31.6702 16.9657C31.6461 16.9415 31.622 16.9173 31.5979 16.8931C31.5738 16.8689 31.5497 16.8447 31.5256 16.8206C31.4532 16.7359 31.3689 16.6512 31.2845 16.5787C31.2483 16.5424 31.2001 16.494 31.164 16.4577C31.1278 16.4214 31.0917 16.3851 31.0434 16.3489C31.0073 16.3126 30.9591 16.2763 30.9229 16.2279C30.8988 16.2037 30.8868 16.1916 30.8626 16.1674C30.8024 16.1069 30.7301 16.0586 30.6698 15.9981C30.6095 15.9497 30.5493 15.9013 30.489 15.853C30.489 15.853 30.477 15.853 30.477 15.8409C30.4167 15.7925 30.3564 15.7441 30.3082 15.7078C30.2479 15.6594 30.1756 15.6111 30.1154 15.5627C30.1033 15.5506 30.0792 15.5385 30.0672 15.5264C30.043 15.5143 30.0189 15.4901 29.9948 15.478C29.9828 15.4659 29.9707 15.4659 29.9587 15.4538C29.9346 15.4417 29.9225 15.4296 29.8984 15.4054C29.8743 15.3933 29.8623 15.3812 29.8382 15.3571C29.7779 15.3087 29.7056 15.2724 29.6453 15.224C29.6091 15.1998 29.585 15.1756 29.5489 15.1635C29.5127 15.1393 29.4886 15.1272 29.4525 15.1031C29.4525 15.1031 29.4525 15.1031 29.4404 15.1031C29.4042 15.0789 29.3801 15.0668 29.344 15.0426C29.3078 15.0184 29.2837 15.0063 29.2476 14.9821C29.2114 14.9579 29.1873 14.9458 29.1511 14.9216C29.1029 14.8974 29.0668 14.8733 29.0186 14.8491C28.9703 14.8249 28.9342 14.8007 28.886 14.7765C28.886 14.7765 28.886 14.7765 28.8739 14.7765C28.8378 14.7644 28.8137 14.7402 28.7775 14.7281C28.7534 14.716 28.7293 14.7039 28.7052 14.6918C28.6208 14.6434 28.5364 14.6072 28.4521 14.5709C28.4521 14.5709 28.44 14.5709 28.44 14.5588C28.4039 14.5346 28.3677 14.5225 28.3195 14.5104C28.3074 14.5104 28.2954 14.4983 28.2833 14.4983C28.2592 14.4862 28.2472 14.4862 28.2231 14.4741C28.199 14.462 28.1869 14.462 28.1628 14.4499C28.1387 14.4378 28.1146 14.4257 28.0905 14.4136C28.0664 14.4015 28.0423 14.3894 28.0182 14.3774C27.9941 14.3653 27.97 14.3532 27.9458 14.3411C27.9217 14.329 27.8976 14.3169 27.8735 14.3048C27.8494 14.2927 27.8133 14.2806 27.7892 14.2685C27.7651 14.2564 27.7409 14.2564 27.7168 14.2443C27.6927 14.2322 27.6807 14.2322 27.6566 14.2201C27.6325 14.208 27.6084 14.1959 27.5843 14.1959C27.5602 14.1838 27.536 14.1717 27.5119 14.1717C27.4878 14.1596 27.4637 14.1475 27.4396 14.1475C27.3794 14.1234 27.307 14.0992 27.2468 14.0871H27.2347C27.2106 14.075 27.1986 14.075 27.1745 14.0629C27.1745 14.0629 27.1745 14.0629 27.1624 14.0629C27.1383 14.0508 27.1142 14.0508 27.1021 14.0387C27.0539 14.0266 27.0178 14.0145 26.9696 14.0024C26.9334 13.9903 26.8852 13.9782 26.849 13.9661C26.8129 13.954 26.7767 13.9419 26.7406 13.9298C26.7164 13.9298 26.7044 13.9177 26.6803 13.9177C26.6682 13.9177 26.6682 13.9177 26.6562 13.9056C26.6441 13.9056 26.6321 13.9056 26.6321 13.8935C26.608 13.8815 26.5839 13.8815 26.5598 13.8694C26.5477 13.8694 26.5357 13.8694 26.5236 13.8573C26.4151 13.8331 26.3067 13.8089 26.1982 13.7847C26.162 13.7726 26.1259 13.7726 26.0897 13.7605H26.0776C26.0415 13.7484 26.0053 13.7484 25.9692 13.7363C25.933 13.7242 25.9089 13.7242 25.8727 13.7121C25.8486 13.7121 25.8245 13.7 25.8004 13.7C25.704 13.6879 25.6076 13.6637 25.5112 13.6516C25.4871 13.6516 25.4629 13.6396 25.4509 13.6396C25.4147 13.6396 25.3786 13.6275 25.3424 13.6275C25.2942 13.6154 25.246 13.6154 25.1978 13.6154C25.1496 13.6154 25.1014 13.6033 25.0531 13.6033H25.0411C24.9688 13.5912 24.8965 13.5912 24.8121 13.5791C24.788 13.5791 24.7518 13.5791 24.7277 13.567C24.7036 13.567 24.6675 13.567 24.6434 13.567C24.559 13.567 24.4746 13.5549 24.3902 13.5549C24.3661 13.5549 24.33 13.5549 24.3059 13.5549C24.2818 13.5549 24.2456 13.5549 24.2215 13.5549C24.1733 13.5549 24.113 13.5549 24.0648 13.5549C23.9202 13.5549 23.7755 13.5549 23.6309 13.5549C23.6068 13.5549 23.5706 13.5549 23.5465 13.5549C23.4863 13.5549 23.4381 13.5549 23.3778 13.567C23.3537 13.567 23.3175 13.567 23.2934 13.567C23.2693 13.567 23.2332 13.567 23.2091 13.567C23.1729 13.567 23.1247 13.5791 23.0885 13.5791C23.0524 13.5791 23.0162 13.5912 22.968 13.5912C22.9559 13.5912 22.9559 13.5912 22.9439 13.5912C22.8716 13.6033 22.7993 13.6033 22.7269 13.6154C22.7269 13.6154 22.7269 13.6154 22.7149 13.6154C22.6667 13.6154 22.6185 13.6275 22.5703 13.6396C22.5703 13.6396 22.5703 13.6396 22.5582 13.6396C22.522 13.6396 22.4738 13.6516 22.4377 13.6516C22.3774 13.6154 22.3533 13.6154 22.3412 13.6154C22.3292 13.6154 22.3171 13.6154 22.3051 13.6275C22.2689 13.6275 22.2328 13.6396 22.1966 13.6396C22.0761 13.6637 21.9435 13.6879 21.823 13.7121H21.8109C21.7748 13.7121 21.7507 13.7242 21.7145 13.7363C21.6904 13.7484 21.6542 13.7484 21.6301 13.7605C21.6181 13.7605 21.606 13.7605 21.606 13.7726C21.5699 13.7847 21.5458 13.7847 21.5096 13.7968C21.4614 13.8089 21.4132 13.821 21.365 13.8331C21.3288 13.8452 21.2926 13.8573 21.2444 13.8694C21.1119 13.9056 20.9672 13.9419 20.8346 13.9903C20.7864 13.9782 20.7382 13.9903 20.69 14.0145C20.6418 14.0266 20.5936 14.0387 20.5574 14.0629C20.5092 14.075 20.473 14.0871 20.4248 14.0992C20.4128 14.0992 20.4007 14.1113 20.3887 14.1113C20.3525 14.1234 20.3164 14.1355 20.2923 14.1475C20.2682 14.1596 20.244 14.1717 20.2199 14.1717C20.1958 14.1838 20.1717 14.1959 20.1476 14.1959C20.1115 14.2201 20.0874 14.2322 20.0633 14.2443C20.015 14.2685 19.9548 14.2806 19.9066 14.3048C19.8825 14.3169 19.8584 14.329 19.8222 14.3411C19.7499 14.3653 19.6896 14.4015 19.6173 14.4378C19.5691 14.462 19.5209 14.4862 19.4727 14.5104C19.4003 14.5467 19.328 14.583 19.2437 14.6193C19.1954 14.6434 19.1593 14.6676 19.1111 14.6797C19.0749 14.7039 19.0267 14.716 18.9905 14.7402C18.9785 14.7402 18.9785 14.7523 18.9664 14.7523C18.9303 14.7765 18.8941 14.7886 18.87 14.8128C18.858 14.8249 18.8339 14.8249 18.8218 14.837C18.8218 14.837 18.8218 14.837 18.8097 14.837C18.7856 14.8491 18.7615 14.8612 18.7495 14.8733C18.7495 14.8733 18.7495 14.8733 18.7374 14.8733C18.7133 14.8853 18.7013 14.8974 18.6772 14.9095C18.6651 14.9216 18.6531 14.9216 18.629 14.9337C18.6049 14.9458 18.5687 14.97 18.5446 14.9821C18.3638 15.091 18.183 15.2119 18.0143 15.3329C17.954 15.3691 17.8937 15.4175 17.8455 15.4538C17.8214 15.478 17.7853 15.4901 17.7611 15.5143C17.7611 15.5143 17.7611 15.5143 17.7491 15.5143C17.725 15.5264 17.7009 15.5506 17.6888 15.5627C17.6286 15.6111 17.5683 15.6594 17.508 15.7078C17.4478 15.7562 17.3996 15.7925 17.3393 15.8409C17.2067 15.9497 17.0862 16.0586 16.9536 16.1795C16.9174 16.2158 16.8813 16.2521 16.8451 16.2884C16.7969 16.3247 16.7608 16.373 16.7125 16.4093C16.6764 16.4456 16.6282 16.494 16.592 16.5303C16.5559 16.5666 16.5076 16.6149 16.4715 16.6512C16.4233 16.6996 16.3871 16.7359 16.351 16.7843C16.3148 16.8206 16.2786 16.8568 16.2425 16.8931C16.1702 16.9778 16.0978 17.0625 16.0135 17.1471C15.9773 17.1955 15.9412 17.2318 15.905 17.2802C15.8809 17.3044 15.8568 17.3406 15.8327 17.3648C15.8086 17.4011 15.7845 17.4253 15.7604 17.4616C15.7363 17.4858 15.7242 17.51 15.7001 17.5463C15.688 17.5584 15.676 17.5826 15.6639 17.5946C15.6037 17.6672 15.5555 17.7398 15.5073 17.8124C15.4952 17.8245 15.4952 17.8245 15.4832 17.8365C15.4711 17.8486 15.4711 17.8607 15.459 17.8728C15.4108 17.9454 15.3626 18.018 15.3144 18.0905C15.2903 18.1268 15.2662 18.1631 15.2421 18.1994C15.218 18.2357 15.1939 18.272 15.1698 18.3083C15.1698 18.3204 15.1577 18.3204 15.1577 18.3324C15.1336 18.3808 15.0975 18.4292 15.0734 18.4776C15.0613 18.4897 15.0613 18.5018 15.0492 18.5139C15.0251 18.5623 14.989 18.6106 14.9649 18.659C14.9649 18.659 14.9649 18.6711 14.9528 18.6711C14.9528 18.6711 14.9528 18.6832 14.9408 18.6832C14.9287 18.7074 14.9167 18.7316 14.8926 18.7558C14.8805 18.78 14.8564 18.8162 14.8443 18.8404C14.8082 18.9009 14.772 18.9735 14.7359 19.034C14.7118 19.0823 14.6877 19.1186 14.6756 19.167C14.6515 19.2154 14.6274 19.2517 14.6153 19.3001C14.6153 19.3121 14.6033 19.3242 14.6033 19.3363C14.5912 19.3726 14.5671 19.3968 14.5551 19.4331C14.5551 19.4452 14.543 19.4452 14.543 19.4573C14.531 19.4936 14.5069 19.5178 14.4948 19.554C14.4948 19.554 14.4948 19.554 14.4948 19.5661C14.4707 19.6145 14.4587 19.6508 14.4345 19.6992C14.4104 19.7597 14.3984 19.7839 14.3863 19.808C14.3381 19.929 14.2899 20.0499 14.2417 20.1709C14.2296 20.1951 14.2176 20.2193 14.2176 20.2435C14.2055 20.2677 14.1935 20.2919 14.1935 20.316C14.1694 20.3644 14.1573 20.3886 14.1573 20.4128C14.1332 20.4733 14.1091 20.5458 14.085 20.6063C14.073 20.6547 14.0489 20.7031 14.0368 20.7636C14.0248 20.8119 14.0127 20.8603 13.9886 20.9087C13.9886 20.9087 13.9886 20.9087 13.9886 20.9208C13.7114 21.8521 13.5547 22.856 13.5547 23.8962V34.2738H23.1608C23.1849 34.2738 23.2211 34.2738 23.2452 34.2738C23.2693 34.2738 23.3055 34.2738 23.3296 34.2738C23.3898 34.2738 23.4381 34.2738 23.4983 34.2859C23.5224 34.2859 23.5586 34.2859 23.5827 34.2859C23.6309 34.2859 23.6912 34.2859 23.7394 34.2859C23.7635 34.2859 23.7876 34.2859 23.8117 34.2859C23.9563 34.2859 24.101 34.2859 24.2456 34.2859C24.2697 34.2859 24.3059 34.2859 24.33 34.2859C24.3902 34.2859 24.4385 34.2859 24.4987 34.2738C24.5228 34.2738 24.559 34.2738 24.5831 34.2738C24.6072 34.2738 24.6434 34.2738 24.6675 34.2738C24.7398 34.2738 24.8241 34.2617 24.8965 34.2496C24.9085 34.2496 24.9206 34.2496 24.9326 34.2496C24.9688 34.2496 25.0049 34.2375 25.0411 34.2375C25.0773 34.2375 25.1134 34.2254 25.1496 34.2254C25.2339 34.2133 25.3063 34.2012 25.3906 34.1891C25.4268 34.177 25.475 34.177 25.5112 34.1649C25.5353 34.1649 25.5594 34.1528 25.5835 34.1528C25.6196 34.1528 25.6437 34.1407 25.6799 34.1407C25.692 34.1407 25.704 34.1407 25.7161 34.1286C25.7281 34.1286 25.7281 34.1286 25.7402 34.1286C25.7643 34.1286 25.7763 34.1165 25.8004 34.1165C25.8125 34.1165 25.8125 34.1165 25.8245 34.1165C25.8366 34.1165 25.8366 34.1165 25.8486 34.1165C25.8848 34.1044 25.921 34.1044 25.9571 34.0923C25.9692 34.0923 25.9692 34.0923 25.9812 34.0923C25.9933 34.0923 25.9933 34.0923 26.0053 34.0923C26.0174 34.0923 26.0294 34.0802 26.0535 34.0802C26.0776 34.0802 26.1018 34.0682 26.1138 34.0682C26.1259 34.0682 26.1379 34.0682 26.15 34.0561H26.162C26.1982 34.044 26.2464 34.0319 26.2825 34.0319C26.3308 34.0198 26.3669 34.0077 26.4151 33.9956H26.4272H26.4392H26.4513C26.4874 33.9835 26.5357 33.9714 26.5718 33.9593C26.6682 33.9351 26.7647 33.9109 26.849 33.8746C26.9334 33.8504 27.0298 33.8263 27.1142 33.79C27.1383 33.7779 27.1624 33.7779 27.1745 33.7658C27.2227 33.7537 27.2709 33.7295 27.307 33.7174C27.3432 33.7053 27.3914 33.6932 27.4276 33.669C27.4517 33.6569 27.4758 33.6448 27.4999 33.6448C27.5481 33.6327 27.5843 33.6085 27.6325 33.5964C27.7651 33.5481 27.8856 33.4876 28.0182 33.4392C28.0664 33.415 28.1146 33.4029 28.1507 33.3787C28.1869 33.3666 28.2231 33.3424 28.2592 33.3304C28.2713 33.3304 28.2713 33.3183 28.2833 33.3183C28.3195 33.3062 28.3556 33.282 28.4039 33.2578C28.4039 33.2578 28.4159 33.2578 28.4159 33.2457C28.4521 33.2215 28.5003 33.2094 28.5364 33.1852C28.5846 33.161 28.6208 33.1368 28.669 33.1247C28.7172 33.1005 28.7654 33.0764 28.8137 33.0401C28.8498 33.0159 28.886 33.0038 28.9221 32.9796C28.9462 32.9675 28.9703 32.9554 28.9944 32.9433C29.0186 32.9312 29.0306 32.9191 29.0547 32.907C29.0788 32.8949 29.115 32.8707 29.1391 32.8586C29.1632 32.8466 29.1993 32.8224 29.2235 32.8103C29.2596 32.7861 29.3078 32.7619 29.344 32.7377C29.585 32.5926 29.8261 32.4232 30.0551 32.2539C30.0913 32.2297 30.1274 32.1934 30.1756 32.1692C30.2238 32.1329 30.2721 32.0967 30.3203 32.0483C30.3685 32.012 30.4046 31.9757 30.4528 31.9394C30.5011 31.9031 30.5372 31.8668 30.5854 31.8306C30.6336 31.7943 30.6698 31.758 30.718 31.7217C30.7542 31.6854 30.7903 31.6612 30.8265 31.6249C30.9591 31.504 31.0796 31.383 31.2122 31.2621C31.2363 31.2379 31.2483 31.2258 31.2724 31.2016C31.3809 31.0928 31.4773 30.9839 31.5858 30.8751C31.622 30.8388 31.6581 30.8025 31.6822 30.7662C31.7184 30.7178 31.7546 30.6815 31.7907 30.6332C31.8269 30.5848 31.863 30.5485 31.8992 30.5001C31.9474 30.4517 31.9836 30.3912 32.0318 30.3429C32.0559 30.3187 32.08 30.2824 32.1041 30.2582C32.1161 30.234 32.1403 30.2219 32.1523 30.1977C32.2005 30.1373 32.2487 30.0768 32.2969 30.0042C32.321 29.9679 32.3452 29.9316 32.3693 29.8953C32.3934 29.8591 32.4175 29.8228 32.4416 29.7865C32.4416 29.7744 32.4536 29.7744 32.4536 29.7623C32.4777 29.7381 32.4898 29.7139 32.5139 29.6776C32.5259 29.6655 32.5259 29.6534 32.5259 29.6534C32.55 29.6293 32.5621 29.593 32.5862 29.5688L32.5983 29.5567C32.5983 29.5567 32.5983 29.5567 32.5983 29.5446C32.5983 29.5325 32.5983 29.5446 32.5983 29.5325C32.6224 29.4962 32.6465 29.4599 32.6585 29.4236C32.6826 29.3874 32.7067 29.3511 32.7308 29.3148C32.7429 29.2906 32.767 29.2543 32.7791 29.2301C32.7911 29.218 32.7911 29.2059 32.8032 29.1938C32.8032 29.1817 32.8152 29.1817 32.8152 29.1696C32.8273 29.1455 32.8514 29.1213 32.8634 29.085C32.8755 29.0729 32.8755 29.0608 32.8875 29.0487C32.8875 29.0366 32.8996 29.0366 32.8996 29.0245C32.9116 29.0124 32.9116 28.9882 32.9237 28.9761C32.9237 28.964 32.9357 28.964 32.9357 28.9519C32.9478 28.9156 32.9719 28.8915 32.984 28.8552C33.0201 28.7826 33.0683 28.71 33.1045 28.6254C33.1165 28.6012 33.1286 28.577 33.1406 28.5528C33.1527 28.5407 33.1527 28.5286 33.1527 28.5165C33.1647 28.4923 33.1768 28.4681 33.1889 28.4439C33.2009 28.4077 33.225 28.3835 33.2371 28.3472C33.2973 28.2262 33.3576 28.0932 33.4058 27.9722C33.442 27.8876 33.4781 27.8029 33.5022 27.7303C33.5143 27.7061 33.5143 27.694 33.5263 27.6699C33.5384 27.6457 33.5384 27.6336 33.5504 27.6094C33.5625 27.5731 33.5866 27.5247 33.5987 27.4884C33.6107 27.4521 33.6228 27.4159 33.6348 27.3675C33.6348 27.3554 33.6348 27.3554 33.6469 27.3433C33.6589 27.2949 33.683 27.2586 33.6951 27.2102C33.7192 27.1498 33.7312 27.0893 33.7553 27.0409C33.7674 27.0167 33.7674 26.9804 33.7794 26.9562C33.7915 26.8958 33.8156 26.8353 33.8277 26.7748C33.8397 26.7506 33.8397 26.7143 33.8518 26.6902C33.8638 26.666 33.8638 26.6297 33.8759 26.6055C33.8759 26.5934 33.8759 26.5813 33.8879 26.5813V26.5692C33.9 26.5329 33.9 26.5087 33.912 26.4724C33.912 26.4603 33.912 26.4482 33.9241 26.4482C33.9361 26.4241 33.9361 26.3999 33.9482 26.3636C33.9482 26.3394 33.9602 26.3152 33.9602 26.291C33.9602 26.2668 33.9723 26.2547 33.9723 26.2305C33.9843 26.2063 33.9843 26.1822 33.9843 26.1459C33.9964 26.1217 33.9964 26.0975 33.9964 26.0612C34.0085 26.0249 34.0085 25.9886 34.0205 25.9644C34.0326 25.8919 34.0567 25.8072 34.0687 25.7346C34.0687 25.7346 34.0687 25.7346 34.0687 25.7225C34.0808 25.6863 34.0808 25.6379 34.0928 25.6016C34.1049 25.5653 34.1049 25.5169 34.1169 25.4806C34.129 25.396 34.141 25.3234 34.1531 25.2387C34.1531 25.2025 34.1651 25.1541 34.1651 25.1178C34.1772 25.0452 34.1772 24.9726 34.1892 24.9001C34.2013 24.8154 34.2013 24.7307 34.2133 24.634C34.2133 24.6098 34.2133 24.5735 34.2133 24.5493C34.2133 24.5251 34.2133 24.4888 34.2133 24.4647C34.2133 24.4405 34.2133 24.4042 34.2133 24.38C34.2133 24.3558 34.2133 24.3195 34.2133 24.2953C34.2133 24.2711 34.2133 24.2348 34.2133 24.2107C34.2133 24.1623 34.2133 24.1018 34.2133 24.0534C34.2133 24.0292 34.2133 24.005 34.2133 23.9809C34.2133 23.9083 34.2133 23.8478 34.2133 23.7752C34.2857 23.751 34.2857 23.6906 34.2857 23.6422ZM29.1029 24.0897C29.1029 24.1018 29.1029 24.126 29.1029 24.1381C29.1029 24.1623 29.1029 24.1865 29.1029 24.2107C29.1029 24.2469 29.1029 24.2953 29.0909 24.3316C29.0909 24.3679 29.0788 24.4163 29.0788 24.4526V24.4647C29.0788 24.4888 29.0788 24.5009 29.0668 24.5251C29.0668 24.5735 29.0547 24.6098 29.0547 24.6582C29.0306 24.8517 28.9824 25.0573 28.9342 25.2508C28.9221 25.2871 28.9101 25.3234 28.9101 25.3476C28.886 25.4323 28.8498 25.529 28.8257 25.6137V25.6258C28.8137 25.6621 28.8016 25.6863 28.7895 25.7225C28.7775 25.7709 28.7534 25.8193 28.7413 25.8556C28.7293 25.8677 28.7293 25.8919 28.7172 25.904C28.7172 25.9161 28.7172 25.9161 28.7052 25.9282C28.6931 25.9524 28.6931 25.9644 28.6811 25.9886C28.669 26.0249 28.6449 26.0733 28.6329 26.1096C28.6208 26.1338 28.6088 26.1701 28.5967 26.1943C28.5846 26.2184 28.5726 26.2547 28.5605 26.2789C28.5485 26.3031 28.5364 26.3394 28.5123 26.3636C28.5003 26.3878 28.4882 26.4241 28.4641 26.4482C28.4521 26.4724 28.428 26.5087 28.4159 26.5329C28.3918 26.5692 28.3797 26.6055 28.3556 26.6297C28.2954 26.7264 28.2351 26.8232 28.1628 26.92C28.1507 26.9441 28.1266 26.9683 28.1025 26.9925C28.0905 27.0167 28.0784 27.0288 28.0664 27.053C28.0302 27.1135 27.982 27.1619 27.9338 27.2102C27.9338 27.2102 27.9338 27.2102 27.9338 27.2223C27.9097 27.2465 27.8976 27.2707 27.8735 27.2949C27.8494 27.3191 27.8374 27.3433 27.8133 27.3675C27.8012 27.3796 27.7892 27.4038 27.7771 27.4159C27.753 27.4521 27.7168 27.4763 27.6927 27.5126C27.6686 27.5368 27.6325 27.5731 27.6084 27.5973C27.5843 27.6215 27.5481 27.6578 27.524 27.6819C27.4758 27.7303 27.4155 27.7787 27.3673 27.8271C27.3432 27.8513 27.3191 27.8755 27.2829 27.8997C27.2588 27.9239 27.2347 27.948 27.1986 27.9722C27.1383 28.0206 27.0901 28.0569 27.0298 28.1053C27.0057 28.1295 26.9696 28.1537 26.9455 28.1658C26.837 28.2504 26.7164 28.323 26.5959 28.3956C26.5357 28.4318 26.4874 28.456 26.4272 28.4923C26.391 28.5165 26.3549 28.5286 26.3187 28.5528C26.2825 28.5649 26.2584 28.5891 26.2223 28.6012C26.1861 28.6133 26.162 28.6375 26.1259 28.6496C26.0897 28.6617 26.0535 28.6858 26.0053 28.6979C25.9692 28.71 25.933 28.7221 25.8969 28.7463C25.8004 28.7826 25.7161 28.8189 25.6196 28.8552C25.5835 28.8673 25.5473 28.8794 25.5232 28.8915C25.4991 28.9036 25.4871 28.9036 25.4629 28.9156C25.4027 28.9398 25.3424 28.9519 25.2822 28.964C25.246 28.9761 25.1978 28.9882 25.1616 29.0003C25.1255 29.0124 25.0773 29.0245 25.0411 29.0245C25.017 29.0245 24.9929 29.0366 24.9688 29.0366C24.9206 29.0487 24.8724 29.0608 24.8121 29.0608C24.788 29.0608 24.7639 29.0729 24.7398 29.0729C24.6795 29.085 24.6192 29.085 24.559 29.0971C24.5349 29.0971 24.5108 29.0971 24.4867 29.1092C24.4746 29.1092 24.4505 29.1092 24.4385 29.1092C24.4143 29.1092 24.4023 29.1092 24.3782 29.1092C24.342 29.1092 24.2938 29.1213 24.2577 29.1213C24.2336 29.1213 24.2094 29.1213 24.1853 29.1213C24.1733 29.1213 24.1492 29.1213 24.1371 29.1213C24.0769 29.1213 24.0166 29.1213 23.9443 29.1213H18.7374V23.8962C18.7374 22.4569 19.316 21.1627 20.2561 20.2193C20.3405 20.1346 20.4369 20.0499 20.5333 19.9653C20.5454 19.9532 20.5695 19.9411 20.5815 19.929C20.5936 19.9169 20.6177 19.9048 20.6297 19.8927C20.6418 19.8806 20.6659 19.8685 20.6779 19.8564C20.7021 19.8322 20.7382 19.808 20.7623 19.7839L20.7744 19.7718C20.8105 19.7476 20.8346 19.7234 20.8708 19.6992C20.907 19.675 20.9431 19.6508 20.9672 19.6266C21.0034 19.6024 21.0395 19.5782 21.0757 19.554C21.1119 19.5299 21.1601 19.5057 21.1962 19.4815C21.2565 19.4452 21.3168 19.4089 21.377 19.3726C21.4373 19.3363 21.4975 19.3001 21.5578 19.2759C21.5819 19.2638 21.594 19.2517 21.6181 19.2517C21.6542 19.2396 21.6783 19.2154 21.7145 19.2033C21.7748 19.167 21.8471 19.1428 21.9194 19.1186C21.9556 19.1065 21.9917 19.0823 22.0399 19.0702C22.064 19.0582 22.0881 19.0582 22.1002 19.0461C22.1363 19.034 22.1725 19.0219 22.2087 19.0098C22.2569 18.9977 22.293 18.9735 22.3412 18.9614C22.3774 18.9493 22.4136 18.9372 22.4377 18.9251C22.4618 18.913 22.4859 18.913 22.51 18.9009C22.6546 18.8646 22.7872 18.8283 22.9318 18.8042C22.9559 18.8042 22.9921 18.7921 23.0162 18.7921C23.0644 18.78 23.1126 18.78 23.1488 18.7679C23.197 18.7558 23.2452 18.7558 23.2934 18.7437C23.3175 18.7437 23.3296 18.7437 23.3537 18.7316C23.3899 18.7316 23.4381 18.7195 23.4742 18.7195C23.5104 18.7195 23.5586 18.7074 23.5947 18.7074C23.6189 18.7074 23.643 18.7074 23.6671 18.7074C23.6791 18.7074 23.7032 18.7074 23.7153 18.7074C23.8358 18.7074 23.9684 18.7074 24.0889 18.7074C24.101 18.7074 24.1251 18.7074 24.1371 18.7074C24.1612 18.7074 24.1853 18.7074 24.2094 18.7074C24.2456 18.7074 24.2938 18.7074 24.33 18.7195C24.3541 18.7195 24.3661 18.7195 24.3902 18.7195C24.4023 18.7195 24.4264 18.7195 24.4385 18.7195C24.4626 18.7195 24.4867 18.7195 24.5108 18.7316C24.571 18.7437 24.6313 18.7437 24.6916 18.7558C24.8 18.7679 24.8965 18.7921 24.9929 18.8162C25.029 18.8283 25.0773 18.8404 25.1134 18.8404C25.1496 18.8525 25.1978 18.8646 25.2339 18.8767C25.3183 18.9009 25.3906 18.9251 25.475 18.9493C25.5112 18.9614 25.5473 18.9735 25.5714 18.9856C25.6799 19.0219 25.7884 19.0582 25.8969 19.1065C25.921 19.1186 25.933 19.1186 25.9571 19.1307C25.9933 19.1428 26.0294 19.167 26.0776 19.1791C26.1259 19.2033 26.1741 19.2275 26.2223 19.2517C26.2464 19.2638 26.2705 19.2759 26.2946 19.288C26.3187 19.3001 26.3428 19.3121 26.3669 19.3242C26.5598 19.4331 26.7526 19.554 26.9455 19.6871C26.9696 19.7113 26.9937 19.7234 27.0178 19.7476C27.0419 19.7597 27.0539 19.7839 27.078 19.796C27.1021 19.808 27.1142 19.8322 27.1383 19.8443C27.1504 19.8564 27.1745 19.8685 27.1865 19.8806C27.1986 19.8927 27.2227 19.9048 27.2347 19.9169C27.2468 19.929 27.2709 19.9411 27.2829 19.9532C27.295 19.9653 27.3191 19.9774 27.3311 19.9895C27.3432 20.0016 27.3673 20.0137 27.3794 20.0258C27.4396 20.0862 27.4999 20.1346 27.5602 20.1951C27.6204 20.2556 27.6807 20.316 27.7289 20.3765C27.7409 20.3886 27.753 20.4128 27.7651 20.4249C27.7771 20.437 27.7892 20.4612 27.8012 20.4733C27.8133 20.4854 27.8253 20.5096 27.8374 20.5217C27.8494 20.5338 27.8615 20.5579 27.8735 20.57C27.8856 20.5821 27.8976 20.6063 27.9097 20.6184C27.9217 20.6426 27.9458 20.6547 27.9579 20.6789C27.9699 20.7031 27.9941 20.7152 28.0061 20.7394C28.199 20.9934 28.3677 21.2595 28.5003 21.5376C28.5244 21.586 28.5485 21.6344 28.5726 21.6828C28.5846 21.7191 28.6088 21.7554 28.6208 21.8037C28.6329 21.8279 28.6329 21.84 28.6449 21.8642C28.6931 21.9731 28.7293 22.0819 28.7654 22.1908C28.7775 22.2271 28.7895 22.2633 28.8016 22.2875C28.8257 22.3722 28.8498 22.4448 28.8739 22.5294C28.9101 22.6504 28.9342 22.7713 28.9583 22.8923C28.9703 22.9891 28.9944 23.0737 29.0065 23.1705C29.0065 23.2068 29.0186 23.231 29.0186 23.2672C29.0186 23.2914 29.0186 23.3156 29.0306 23.3398C29.0306 23.3761 29.0427 23.4124 29.0427 23.4608C29.0427 23.497 29.0547 23.5454 29.0547 23.5817C29.0547 23.6059 29.0547 23.6301 29.0547 23.6543C29.0547 23.6664 29.0547 23.6906 29.0547 23.7027C29.1029 23.8357 29.1029 23.9567 29.1029 24.0897Z" fill="white"/>
<path d="M13.5547 29.1031H18.7374L13.5547 34.2858V29.1031Z" fill="#A555E6"/>
</svg>
