<svg width="18" height="17" viewBox="0 0 18 17" fill="none" xmlns="http://www.w3.org/2000/svg">
<path d="M3.51707 15.9787C3.98215 16.2968 4.52209 16.4504 5.0581 16.4504C5.86476 16.4504 6.66086 16.1026 7.1732 15.4489C7.17467 15.4475 7.17606 15.4461 7.17737 15.4445C7.17861 15.443 7.17985 15.4415 7.18101 15.44L7.18278 15.4376C7.18402 15.436 7.18518 15.4344 7.18634 15.4328L8.99932 13.0846L10.8123 15.4328C10.8141 15.4354 10.8159 15.4373 10.8177 15.4395C10.8186 15.4405 10.8193 15.4416 10.8202 15.4427C11.6741 16.5383 13.315 16.7796 14.4829 15.9799C15.6521 15.1803 15.9136 13.6342 15.0701 12.5301L15.0683 12.5273C15.0667 12.525 15.0655 12.5232 15.0636 12.5214L13.2545 10.1719L16.1855 9.27322C17.5623 8.85111 18.319 7.4511 17.871 6.15376C17.4231 4.8565 15.9385 4.14349 14.5604 4.56438L11.6295 5.45936L11.6282 2.55408C11.6268 1.18995 10.4484 0.0795898 9.00063 0.0795898C7.5529 0.0795898 6.37448 1.18995 6.37317 2.55532L6.37054 5.45813L3.43957 4.56313C3.43841 4.56313 3.437 4.56289 3.43558 4.56251C3.43373 4.56205 3.43184 4.56135 3.43036 4.56066C2.05487 4.14474 0.575597 4.85774 0.128925 6.1526C-0.317753 7.44739 0.433721 8.84245 1.80395 9.26827C1.80522 9.26864 1.80635 9.26907 1.80744 9.26951L1.81227 9.27126L1.81447 9.27199L4.74411 10.1706L2.93508 12.5202C2.93442 12.5214 2.93345 12.5226 2.93247 12.5239C2.93147 12.5251 2.9305 12.5264 2.92984 12.5276C2.08509 13.6317 2.34784 15.1791 3.51707 15.9787Z" fill="#4DFFAF"/>
</svg>
