<svg width="23" height="35" viewBox="0 0 23 35" fill="none" xmlns="http://www.w3.org/2000/svg">
<path opacity="0.8" d="M6.15118 0.939453C2.85407 0.939453 0.166016 3.62751 0.166016 6.92461C0.166016 9.24847 1.53903 11.2148 3.48178 12.2056C1.53903 13.1965 0.166016 15.1628 0.166016 17.4867C0.166016 19.8105 1.53903 21.7769 3.48178 22.7677C1.53903 23.7585 0.166016 25.7249 0.166016 28.0487C0.166016 31.3458 2.85407 34.0339 6.15118 34.0339C9.44828 34.0339 12.1363 31.3458 12.1363 28.0487V22.7677V20.4132C13.0808 22.2056 14.905 23.4718 17.0653 23.4718C20.168 23.4718 22.6984 20.9415 22.6984 17.8387C22.6984 15.2885 20.9565 13.2116 18.6248 12.5219C20.9758 11.7139 22.6984 9.54416 22.6984 6.92461C22.6984 3.62751 20.0103 0.939453 16.7132 0.939453H11.4322H6.15118ZM6.15118 2.34773H10.7281V11.5015H6.15118C3.61521 11.5015 1.57429 9.46058 1.57429 6.92461C1.57429 4.38865 3.61521 2.34773 6.15118 2.34773ZM12.1363 2.34773H16.7132C19.2492 2.34773 21.2901 4.38865 21.2901 6.92461C21.2901 9.46058 19.2492 11.5015 16.7132 11.5015H12.1363V2.34773ZM6.15118 12.9098H10.7281V22.0635H6.15118C3.61521 22.0635 1.57429 20.0226 1.57429 17.4867C1.57429 14.9507 3.61521 12.9098 6.15118 12.9098ZM12.1363 12.9098H14.4908C13.4804 13.4422 12.6688 14.2539 12.1363 15.2642V12.9098ZM17.0653 13.6139C19.4069 13.6139 21.2901 15.4971 21.2901 17.8387C21.2901 20.1804 19.4069 22.0635 17.0653 22.0635C14.7236 22.0635 12.8405 20.1804 12.8405 17.8387C12.8405 15.4971 14.7236 13.6139 17.0653 13.6139ZM6.15118 23.4718H10.7281V28.0487C10.7281 30.5847 8.68714 32.6256 6.15118 32.6256C3.61521 32.6256 1.57429 30.5847 1.57429 28.0487C1.57429 25.5127 3.61521 23.4718 6.15118 23.4718Z" fill="white" fill-opacity="0.8"/>
</svg>
