<svg width="35" height="34" viewBox="0 0 35 34" fill="none" xmlns="http://www.w3.org/2000/svg">
<path opacity="0.8" d="M26.9346 1.10925C28.7523 1.11129 30.495 1.83427 31.7803 3.11958C33.0656 4.40489 33.7886 6.14756 33.7906 7.96526V26.1685C33.7886 27.9862 33.0656 29.7288 31.7803 31.0142C30.495 32.2995 28.7523 33.0224 26.9346 33.0245H8.73137C6.91367 33.0224 5.171 32.2995 3.88569 31.0142C2.60038 29.7288 1.8774 27.9862 1.87537 26.1685V7.96526C1.8774 6.14756 2.60038 4.40489 3.88569 3.11958C5.171 1.83427 6.91367 1.11129 8.73137 1.10925H26.9346ZM26.9346 0.147949H8.73137C7.70472 0.147697 6.68807 0.349725 5.73952 0.742492C4.79097 1.13526 3.92909 1.71107 3.20314 2.43702C2.47718 3.16298 1.90137 4.02485 1.50861 4.97341C1.11584 5.92196 0.91381 6.9386 0.914063 7.96526V26.1685C0.91381 27.1951 1.11584 28.2118 1.50861 29.1603C1.90137 30.1089 2.47718 30.9708 3.20314 31.6967C3.92909 32.4227 4.79097 32.9985 5.73952 33.3912C6.68807 33.784 7.70472 33.986 8.73137 33.9858H26.9346C27.9612 33.986 28.9779 33.784 29.9264 33.3912C30.875 32.9985 31.7369 32.4227 32.4628 31.6967C33.1888 30.9708 33.7646 30.1089 34.1574 29.1603C34.5501 28.2118 34.7522 27.1951 34.7519 26.1685V7.96526C34.7522 6.9386 34.5501 5.92196 34.1574 4.97341C33.7646 4.02485 33.1888 3.16298 32.4628 2.43702C31.7369 1.71107 30.875 1.13526 29.9264 0.742492C28.9779 0.349725 27.9612 0.147697 26.9346 0.147949Z" fill="white" fill-opacity="0.8"/>
<path fill-rule="evenodd" clip-rule="evenodd" d="M23.8702 13.6928C24.0758 13.7014 24.281 13.6681 24.4733 13.5951C24.6656 13.522 24.8411 13.4107 24.9892 13.2679C25.132 13.1198 25.2433 12.9443 25.3164 12.752C25.3894 12.5597 25.4226 12.3545 25.4141 12.149C25.4273 11.7374 25.2773 11.3373 24.9969 11.0358C24.8539 10.8873 24.6812 10.7706 24.49 10.6934C24.2989 10.6162 24.0936 10.5802 23.8876 10.5878C23.6792 10.5794 23.4712 10.613 23.2761 10.6867C23.081 10.7604 22.9028 10.8726 22.752 11.0166C22.6012 11.1607 22.4809 11.3336 22.3984 11.5251C22.3158 11.7166 22.2727 11.9228 22.2715 12.1314C22.2703 12.3399 22.3112 12.5465 22.3916 12.739C22.472 12.9314 22.5903 13.1056 22.7395 13.2514C22.8887 13.3971 23.0657 13.5113 23.26 13.5871C23.4542 13.6629 23.6618 13.6989 23.8702 13.6928ZM23.3108 11.578C23.3869 11.5043 23.4774 11.4471 23.5767 11.41C23.6759 11.373 23.7818 11.3568 23.8876 11.3626C23.9887 11.3557 24.0902 11.3706 24.1851 11.4065C24.28 11.4423 24.3661 11.4982 24.4374 11.5703C24.5083 11.648 24.5631 11.739 24.5987 11.838C24.6343 11.9369 24.6501 12.042 24.6451 12.147C24.6359 12.2693 24.5976 12.3876 24.5334 12.492C24.4692 12.5964 24.381 12.684 24.2761 12.7475C24.1712 12.8109 24.0527 12.8483 23.9304 12.8566C23.8081 12.865 23.6856 12.8439 23.573 12.7953C23.4605 12.7466 23.3613 12.6718 23.2835 12.577C23.2058 12.4822 23.1518 12.3702 23.1262 12.2504C23.1005 12.1305 23.1039 12.0062 23.136 11.8879C23.1681 11.7696 23.228 11.6607 23.3108 11.5703V11.578ZM17.4852 11.5338L17.5179 11.603L21.515 22.8849C21.5463 22.9618 21.558 23.0453 21.5489 23.1279C21.5399 23.2105 21.5104 23.2895 21.4631 23.3578C21.4151 23.4212 21.3524 23.4719 21.2803 23.5054C21.2083 23.5389 21.1291 23.5542 21.0497 23.5501H19.0079C18.8945 23.551 18.7834 23.5175 18.6893 23.454C18.5953 23.3905 18.5227 23.3 18.4811 23.1944V23.1694L17.5198 20.3836H14.0591L13.1517 23.1194C13.1263 23.2475 13.055 23.3618 12.9513 23.4411C12.8476 23.5204 12.7186 23.5591 12.5884 23.5501H10.7715C10.6904 23.5545 10.6095 23.5393 10.5356 23.5059C10.4616 23.4724 10.3968 23.4216 10.3466 23.3578C10.2984 23.2905 10.2672 23.2124 10.2558 23.1304C10.2444 23.0483 10.2532 22.9647 10.2812 22.8868L13.8919 12.5566C13.9774 12.2902 14.0183 12.0116 14.013 11.7318C14.0137 11.6673 14.0275 11.6035 14.0536 11.5445C14.0797 11.4855 14.1176 11.4324 14.1649 11.3885C14.2122 11.3446 14.268 11.3108 14.3288 11.2891C14.3896 11.2675 14.4542 11.2585 14.5186 11.2627H17.018C17.1129 11.2627 17.206 11.2878 17.2881 11.3354C17.3701 11.383 17.4381 11.4515 17.4852 11.5338ZM18.0697 19.6203L19.1675 22.7868H20.6806L16.8546 12.0318H14.7705C14.7596 12.3154 14.7045 12.5957 14.6071 12.8623L11.131 22.7868H12.4499L13.5035 19.6203H18.0697ZM15.4491 13.0449H16.0431L16.1412 13.3237C16.2777 13.7986 16.5642 14.7022 16.9929 16C17.4313 17.3246 17.6677 18.0514 17.7158 18.2206L17.8562 18.7108H13.7014L13.8668 18.2052C14.7358 15.552 15.2453 13.9178 15.3798 13.341L15.4491 13.0449ZM14.7569 17.9418H16.8122H16.8218C16.7141 17.6111 16.5411 17.0805 16.2623 16.248C16.0739 15.675 15.9124 15.1771 15.7778 14.7599C15.5452 15.5155 15.2087 16.5729 14.7569 17.9418ZM22.8995 14.3599H24.8221C24.8912 14.3578 24.9601 14.3699 25.0244 14.3954C25.0887 14.4209 25.1471 14.4594 25.196 14.5084C25.2448 14.5575 25.2831 14.616 25.3084 14.6804C25.3337 14.7448 25.3455 14.8137 25.3431 14.8829V23.0328C25.3452 23.102 25.3332 23.171 25.3076 23.2354C25.2821 23.2998 25.2437 23.3583 25.1947 23.4073C25.1457 23.4563 25.0872 23.4948 25.0228 23.5203C24.9584 23.5458 24.8894 23.5579 24.8201 23.5557H22.9168C22.8449 23.559 22.7732 23.5473 22.7062 23.5213C22.6392 23.4953 22.5783 23.4556 22.5275 23.4048C22.4766 23.354 22.4369 23.2931 22.411 23.2261C22.385 23.159 22.3732 23.0873 22.3765 23.0155V14.8829C22.3741 14.8135 22.386 14.7445 22.4114 14.6799C22.4368 14.6154 22.4753 14.5568 22.5243 14.5077C22.5734 14.4587 22.632 14.4202 22.6965 14.3948C22.7611 14.3694 22.8301 14.3575 22.8995 14.3599ZM23.1475 22.7867H24.576V15.129H23.1475V22.7867Z" fill="white" fill-opacity="0.8"/>
</svg>
