<svg width="26" height="32" viewBox="0 0 26 32" fill="none" xmlns="http://www.w3.org/2000/svg">
<path d="M11.6043 3.2C9.03289 3.2 7.72462 3.47002 6.52057 4.10403C5.49806 4.64248 4.71502 5.41347 4.16816 6.42026C3.52424 7.60578 3.25 8.89392 3.25 11.4258V20.5742C3.25 23.1061 3.52424 24.3942 4.16816 25.5797C4.71502 26.5866 5.49806 27.3576 6.52057 27.896C7.72462 28.5299 9.03289 28.8 11.6043 28.8H14.3957C16.9671 28.8 18.2754 28.5299 19.4794 27.896C20.502 27.3576 21.2851 26.5866 21.8319 25.5797C22.4757 24.3942 22.75 23.1061 22.75 20.5742V11.4258C22.75 8.89392 22.4757 7.60578 21.8319 6.42026C21.2851 5.41347 20.502 4.64248 19.4794 4.10403C18.2754 3.47002 16.9671 3.2 14.3957 3.2H11.6043ZM11.6043 0H14.3957C17.6683 0 19.4233 0.445568 21.0121 1.28224C22.601 2.11891 23.848 3.3467 24.6977 4.91114C25.5474 6.47558 26 8.20354 26 11.4258V20.5742C26 23.7965 25.5474 25.5245 24.6977 27.0888C23.848 28.6533 22.601 29.8811 21.0121 30.7178C19.4233 31.5544 17.6683 32 14.3957 32H11.6043C8.33172 32 6.57677 31.5544 4.98787 30.7178C3.399 29.8811 2.15202 28.6533 1.30228 27.0888C0.45253 25.5245 0 23.7965 0 20.5742V11.4258C0 8.20354 0.45253 6.47558 1.30228 4.91114C2.15202 3.3467 3.399 2.11891 4.98787 1.28224C6.57677 0.445568 8.33172 0 11.6043 0ZM11.375 6.4H14.625V14.4H11.375V6.4Z" fill="#4DFFAF"/>
</svg>
