<svg width="38" height="34" viewBox="0 0 38 34" fill="none" xmlns="http://www.w3.org/2000/svg">
<path opacity="0.8" d="M19.3548 0.148613C19.3381 0.149462 19.3214 0.151133 19.3048 0.15362L9.05072 1.69173C8.91737 1.7116 8.79721 1.78319 8.71626 1.891L1.02573 12.145C0.95612 12.2383 0.920284 12.3524 0.924105 12.4687C0.927926 12.5849 0.971178 12.6965 1.04676 12.7849L18.9913 33.8057C19.0396 33.8623 19.0996 33.9078 19.1672 33.9389C19.2349 33.97 19.3084 33.986 19.3828 33.9858C19.4572 33.9856 19.5307 33.9692 19.5982 33.9378C19.6656 33.9063 19.7254 33.8606 19.7734 33.8037L37.718 12.5105C37.7933 12.4211 37.8357 12.3085 37.8383 12.1916C37.8408 12.0746 37.8033 11.9604 37.732 11.8677L30.0415 1.88599C29.9606 1.78095 29.8421 1.71133 29.711 1.69173L19.457 0.15362C19.4232 0.148552 19.389 0.146875 19.3548 0.148613ZM19.3859 1.27315L29.5568 11.9237H9.20593L19.3859 1.27315ZM18.6639 1.28617L8.89851 11.5032L9.35513 2.74918L9.41121 2.67407L18.6639 1.28617ZM20.1089 1.28817L29.3545 2.67407L29.4066 2.74116L29.8632 11.5032L20.1089 1.28817ZM29.9573 3.45614L36.4813 11.9237H30.398L29.9573 3.45614ZM8.80238 3.48518L8.36378 11.9237H2.47371L8.80238 3.48518ZM2.0972 12.4364H8.44889L17.6966 30.7115L2.0972 12.4364ZM9.02368 12.4364H29.7391L19.6693 32.3347L19.3779 32.6812L19.1065 32.3637L9.02368 12.4364ZM30.3128 12.4364H36.4392L21.1062 30.6304L30.3128 12.4364Z" fill="white" fill-opacity="0.8"/>
</svg>
