<svg width="35" height="34" viewBox="0 0 35 34" fill="none" xmlns="http://www.w3.org/2000/svg">
<path opacity="0.8" d="M17.833 0.147949C8.50424 0.147949 0.914062 7.73813 0.914062 17.0669C0.914062 26.3956 8.50424 33.9858 17.833 33.9858C27.1617 33.9858 34.7519 26.3956 34.7519 17.0669C34.7519 7.73813 27.1617 0.147949 17.833 0.147949ZM17.833 1.31477C26.5188 1.31477 33.5851 8.38105 33.5851 17.0669C33.5851 25.7527 26.5188 32.819 17.833 32.819C9.14716 32.819 2.08088 25.7527 2.08088 17.0669C2.08088 8.38105 9.14716 1.31477 17.833 1.31477ZM18.0495 3.10603C15.7755 3.05798 13.5089 3.58482 11.4918 4.65115C11.2065 4.80226 11.098 5.15496 11.2491 5.43967C11.3489 5.62986 11.5406 5.74202 11.7425 5.74961C11.8417 5.75369 11.9425 5.73197 12.0365 5.68238C14.4915 4.38487 17.354 3.96245 20.0948 4.49277C20.4169 4.55286 20.7173 4.34749 20.7785 4.03128C20.8404 3.71565 20.6332 3.40946 20.317 3.34645C19.5665 3.20118 18.8075 3.12204 18.0495 3.10603ZM22.6313 4.06318C22.4041 4.06545 22.1888 4.20037 22.0969 4.4244C21.9738 4.72194 22.1161 5.06247 22.4148 5.18557C22.8244 5.35359 23.2306 5.54689 23.6227 5.761C23.7049 5.80592 23.7915 5.82873 23.879 5.83165C24.0931 5.83923 24.3038 5.72866 24.4134 5.52855C24.5681 5.24559 24.4639 4.89177 24.181 4.73775C23.7528 4.50322 23.3073 4.29143 22.8581 4.10648C22.7837 4.076 22.7071 4.06243 22.6313 4.06318ZM8.03692 9.48252L8.21809 10.8066L9.96833 23.6416L10.1062 24.6546L11.1272 24.6512C13.7479 24.6425 15.9916 22.952 17.1584 20.1184C17.3404 21.7537 17.509 23.2631 17.5481 23.6143L17.6643 24.6512H18.7081C21.3813 24.6512 23.6805 22.978 24.859 20.1765L28.5406 11.088L29.1913 9.48252H27.4593C25.5673 9.48252 23.0287 10.2447 21.6776 13.8729L21.6685 13.898L21.6605 13.9242C21.6459 13.9691 21.6208 14.0488 21.5875 14.1544C21.3449 12.5494 21.1161 11.0427 21.0292 10.4727L20.8777 9.48252H19.8749C16.0069 9.48252 14.7767 12.7872 14.3724 13.8729C14.3718 13.8741 14.3718 13.8746 14.3713 13.8763C13.992 11.1139 11.5922 9.48252 9.37352 9.48252H8.03692ZM9.37352 10.6493C11.0969 10.6493 13.0914 11.9991 13.2455 14.331C13.2455 14.331 13.5119 18.9703 13.5201 19.339C13.6659 18.9446 15.4663 14.2797 15.4663 14.2797C16.1781 12.3679 17.3458 10.6493 19.8749 10.6493C19.8749 10.6493 21.1336 18.9269 21.1762 19.3219C21.2876 18.9275 22.7715 14.2809 22.7715 14.2809C23.4832 12.3684 24.8357 10.6493 27.4593 10.6493L23.7833 19.7241C23.0115 21.559 21.3574 23.4844 18.7081 23.4844C18.7081 23.4844 17.8072 15.4114 17.7897 15.2312C17.7208 15.4196 16.1352 19.5361 16.1352 19.5361C15.389 21.4398 13.773 23.4756 11.1238 23.4844L9.37352 10.6493ZM12.1835 27.2173C11.9574 27.1923 11.7285 27.3022 11.6103 27.5136L11.0406 28.5323C10.8831 28.814 10.9833 29.169 11.265 29.3265C11.5463 29.4834 11.9017 29.3832 12.0593 29.102L12.629 28.0833C12.7865 27.8015 12.6863 27.4466 12.4045 27.2891C12.3341 27.2497 12.2588 27.2256 12.1835 27.2173ZM23.5133 27.2173C23.4379 27.2256 23.3626 27.2497 23.2922 27.2891C23.0104 27.4466 22.9102 27.8015 23.0677 28.0833L23.6375 29.102C23.7944 29.3832 24.1499 29.4834 24.4317 29.3265C24.7135 29.169 24.8137 28.814 24.6562 28.5323L24.0864 27.5136C23.9683 27.3022 23.7393 27.1923 23.5133 27.2173ZM14.843 28.3397C14.6185 28.3698 14.4192 28.5299 14.3553 28.7636L14.0476 29.8894C13.9619 30.2003 14.1446 30.5198 14.4556 30.605C14.5052 30.6178 14.5547 30.626 14.6048 30.6266C14.8627 30.6289 15.1011 30.4584 15.1723 30.197L15.48 29.0712C15.5651 28.7609 15.383 28.4397 15.072 28.3545C14.9956 28.3336 14.9178 28.3297 14.843 28.3397ZM20.8891 28.3682C20.8141 28.3573 20.7363 28.3607 20.6589 28.3807C20.3473 28.463 20.1607 28.7808 20.243 29.0929L20.5392 30.2221C20.6075 30.4829 20.8409 30.655 21.0976 30.6574C21.1495 30.6574 21.2001 30.6514 21.2514 30.638C21.5635 30.5557 21.7502 30.2368 21.6673 29.9247L21.371 28.7966C21.3098 28.5625 21.1138 28.4008 20.8891 28.3682ZM17.833 28.7351C17.5104 28.7351 17.2496 28.9959 17.2496 29.3185V30.4853C17.2496 30.8079 17.5104 31.0687 17.833 31.0687C18.1556 31.0687 18.4164 30.8079 18.4164 30.4853V29.3185C18.4164 28.9959 18.1556 28.7351 17.833 28.7351Z" fill="white" fill-opacity="0.8"/>
</svg>
