<svg xmlns="http://www.w3.org/2000/svg" enable-background="new 0 0 24 24" viewBox="0 0 24 24" id="flutter"><polygon fill="#0D47A1" points="11.536 21.231 14.305 24 21.695 24 15.232 17.537 11.536 21.231"></polygon><polygon fill="#42A5F5" points="7.849 17.538 11.539 13.848 15.229 17.538 11.539 21.229 7.849 17.538"></polygon><polygon fill="#5A9FD7" points="15.233 17.536 15.231 17.536 15.231 17.536 15.232 17.536 15.232 17.536 15.233 17.536"></polygon><polygon fill="#0B3E8C" points="15.372 17.677 17.02 19.337 13.11 20.688 12.054 21.744 11.54 21.23 11.536 21.231 14.305 24 21.695 24 15.372 17.677"></polygon><polygon fill="#3990D5" points="15.227 17.536 7.852 17.536 7.849 17.538 11.539 21.229 15.229 17.538 15.227 17.536"></polygon><path fill="#68B7F7" d="M21.695,11.073h-7.391l-2.768,2.768l3.694,3.694h0.002L21.695,11.073L21.695,11.073z M21.695,0h-7.391l-12,11.999L6,15.695L21.695,0L21.695,0z"></path><path fill="#5B9FD7" d="M20.844,11.073h-6.539l-2.768,2.768l3.694,3.694h0.002l5.611-5.611V11.073L20.844,11.073z M15.695,6H8.304l-5.999,5.999L6,15.695L15.695,6L15.695,6z"></path></svg>